# xmcd
#
# Track frame offsets:
#	150
#	12188
#	26190
#	40002
#	51730
#	60842
#	75754
#	91723
#	106969
#	120031
#	133509
#	142610
#	159660
#	173241
#	184273
#
# Disc length: 2599
#
# Revision: 4
# Processed by: cddbd v1.5.1PL0 Copyright (c) Steve Scherf et al.
# Submitted via: NeoAudio 9.9.9
# Normalized: r3:TSWAP
#
DISCID=ab0a250f
DTITLE=Various Artist - Country And Linedance Hits
DYEAR=1998
DGENRE=Country
TTITLE0=Dolly Parton - Jolene
TTITLE1=John Denver - Thank God I'm a Country Boy
TTITLE2=Kenny Rodgers - Love Me Tender
TTITLE3=Telly Savalles - Some Broken Hearts Never Mend
TTITLE4=Everly Brothers - Wake Up Little Susie
TTITLE5=Chaps - Rawhide
TTITLE6=Rednex - Old Pop In An Oak
TTITLE7=Country Dance Kings - Achy Breaky Heart
TTITLE8=Charlie Rich - The Most Beautiful
TTITLE9=Jimmy Dean - Big Bad John
TTITLE10=Jim Reaves - I Won't Forget You
TTITLE11=Firestone - Countryhits 1
TTITLE12=Lynn Anderson - Rose Garden
TTITLE13=Don Gibson - Oh Lonesome Me
TTITLE14=Saskia en Serge - It's So Easy
EXTD=YEAR: 1998
EXTT0=
EXTT1=
EXTT2=
EXTT3=
EXTT4=
EXTT5=
EXTT6=
EXTT7=
EXTT8=
EXTT9=
EXTT10=
EXTT11=
EXTT12=
EXTT13=
EXTT14=
PLAYORDER=
